<svg id="Layer_1" data-name="Layer 1" xmlns="http://www.w3.org/2000/svg" viewBox="0 0 100 100"><defs><style>.cls-1{fill:#396b8f;}.cls-2{fill:#fff;}</style></defs><rect class="cls-1" width="100" height="100" rx="14"/><path class="cls-2" d="M7.35,26.49H25.77q16.38,0,16.38,12.89,0,6.39-5.61,10.62,8.13,3.53,8.13,12.59a13.81,13.81,0,0,1-9.8,13.82,26.73,26.73,0,0,1-7.21.78H24.8v-13h2.57a6.34,6.34,0,0,0,3.19-.58,2.17,2.17,0,0,0,.93-2q0-2.44-3.79-2.45H24.8V45.58c2.78,0,4.16-.95,4.16-2.86,0-1.76-1.25-2.63-3.75-2.63H22.43v37.1H7.35Z"/><path class="cls-2" d="M65.84,26.49v50.7H50.76V26.49Zm28.93,0-13.37,23L94.7,77.19H77.76l-11.47-28,13-22.69Z"/></svg>