<svg id="Layer_1" data-name="Layer 1" xmlns="http://www.w3.org/2000/svg" viewBox="0 0 200.03 200.03"><defs><style>.cls-1{fill:#092e20;}.cls-2{fill:#fff;}</style></defs><rect class="cls-1" width="200.03" height="200.03" rx="29.12"/><path class="cls-2" d="M79.44,30.51h23.87V141a157.71,157.71,0,0,1-31,3.25C43.17,144.26,28,131.09,28,105.82,28,81.49,44.1,65.67,69.06,65.67a38.11,38.11,0,0,1,10.38,1.24Zm0,55.62a23.92,23.92,0,0,0-8.06-1.24c-12.09,0-19.07,7.45-19.07,20.46C52.31,118.07,59,125,71.23,125a54.9,54.9,0,0,0,8.21-.62Z"/><path class="cls-2" d="M141.29,67.38v55.34c0,19.06-1.4,28.21-5.58,36.12-3.88,7.59-9,12.4-19.53,17.67L94,166c10.54-5,15.66-9.29,18.91-16,3.41-6.82,4.5-14.73,4.5-35.5V67.38ZM117.42,30.64h23.87V55.13H117.42Z"/></svg>