<svg id="Layer_1" data-name="Layer 1" xmlns="http://www.w3.org/2000/svg" xmlns:xlink="http://www.w3.org/1999/xlink" viewBox="0 0 400 397.91"><defs><style>.cls-1{fill:url(#linear-gradient);}.cls-2{fill:url(#linear-gradient-2);}</style><linearGradient id="linear-gradient" x1="-94.52" y1="577.46" x2="-78.7" y2="561.59" gradientTransform="matrix(12.5, 0, 0, -12.5, 1219, 7254)" gradientUnits="userSpaceOnUse"><stop offset="0" stop-color="#387eb8"/><stop offset="1" stop-color="#366994"/></linearGradient><linearGradient id="linear-gradient-2" x1="-84.79" y1="567.36" x2="-67.8" y2="551.08" gradientTransform="matrix(12.5, 0, 0, -12.5, 1219, 7254)" gradientUnits="userSpaceOnUse"><stop offset="0" stop-color="#ffe052"/><stop offset="1" stop-color="#ffc331"/></linearGradient></defs><path class="cls-1" d="M198.56,0C97,0,103.35,44,103.35,44l.12,45.62h96.9v13.69H65S0,96,0,198.45s56.71,98.82,56.71,98.82H90.56V249.72S88.74,193,146.38,193h96.1s54,.88,54-52.19V53.09S304.68,0,198.56,0ZM145.13,30.68a17.44,17.44,0,1,1-17.44,17.48v0A17.43,17.43,0,0,1,145.13,30.68Z"/><path class="cls-2" d="M201.44,397.91c101.55,0,95.21-44,95.21-44l-.12-45.63H199.62V294.56H335s65,7.38,65-95.08-56.71-98.83-56.71-98.83H309.44v47.54s1.82,56.71-55.81,56.71h-96.1s-54-.88-54,52.19v87.73S95.33,397.91,201.44,397.91Zm53.44-30.67a17.41,17.41,0,0,1-17.44-17.39v-.05a17.44,17.44,0,1,1,17.44,17.44Z"/></svg>